<?xml version="1.0" encoding="iso-8859-1"?>
<!-- Generator: Adobe Illustrator 19.0.0, SVG Export Plug-In . SVG Version: 6.00 Build 0)  -->
<svg version="1.1" id="Capa_1" xmlns="http://www.w3.org/2000/svg" xmlns:xlink="http://www.w3.org/1999/xlink" x="0px" y="0px"
	 viewBox="0 0 60 60" style="enable-background:new 0 0 60 60;" xml:space="preserve">
<g>
	<g>
		<path fill="#7e1dad" d="M59,10H39V6h3c0.6,0,1-0.4,1-1V1c0-0.6-0.4-1-1-1H18c-0.6,0-1,0.4-1,1v4c0,0.6,0.4,1,1,1h3v4H1c-0.6,0-1,0.4-1,1v18
			c0,0.6,0.4,1,1,1h3v27c0,1.7,1.3,3,3,3h27v-2H7c-0.6,0-1-0.4-1-1V30h16v5c0,0.6,0.4,1,1,1h7v-2h-6v-4h10v3h2v-3h18v2h2v-2h3
			c0.6,0,1-0.4,1-1V11C60,10.4,59.6,10,59,10z M19,2h22v2H19V2z M23,6h14v4H23V6z M58,28H35H23H2V12h20h16h20V28z"/>
		<path fill="#5d0787" d="M59,42h-2.8c-0.1-0.1-0.1-0.3-0.2-0.4l2-1.8c0.2-0.2,0.3-0.4,0.3-0.7c0-0.3-0.1-0.5-0.3-0.7l-4.2-4.2
			c-0.4-0.4-1-0.4-1.4,0l-1.9,1.9c-0.2-0.1-0.3-0.1-0.4-0.2V33c0-0.6-0.4-1-1-1h-6c-0.6,0-1,0.4-1,1v2.7c-0.1,0.1-0.3,0.1-0.4,0.2
			L39.8,34c-0.4-0.4-1-0.4-1.4,0l-4.2,4.2c-0.2,0.2-0.3,0.4-0.3,0.7c0,0.3,0.1,0.5,0.3,0.7l1.9,1.9c-0.1,0.2-0.1,0.3-0.2,0.4H33
			c-0.6,0-1,0.4-1,1v6c0,0.6,0.4,1,1,1h2.8c0.1,0.1,0.1,0.3,0.2,0.4l-1.9,1.9c-0.2,0.2-0.3,0.4-0.3,0.7c0,0.3,0.1,0.5,0.3,0.7
			l4.2,4.2c0.4,0.4,1,0.4,1.4,0l1.9-1.9c0.2,0.1,0.3,0.1,0.4,0.2V59c0,0.6,0.4,1,1,1h6c0.6,0,1-0.4,1-1v-2.8
			c0.1-0.1,0.3-0.1,0.4-0.2l1.9,1.9c0.4,0.4,1,0.4,1.4,0l4.2-4.2c0.2-0.2,0.3-0.4,0.3-0.7s-0.1-0.5-0.3-0.7L56,50.4
			c0.1-0.1,0.1-0.3,0.2-0.4H59c0.6,0,1-0.4,1-1v-6C60,42.4,59.6,42,59,42z M58,48h-2.5c-0.5,0-0.9,0.4-1,0.8c0,0.2-0.4,1-0.5,1.2
			s-0.2,0.4-0.2,0.6c0,0.3,0.1,0.5,0.3,0.7l1.7,1.7L53,55.8l-1.7-1.7c-0.2-0.2-0.4-0.3-0.7-0.3c-0.3,0-0.4,0.1-0.6,0.2
			s-1,0.4-1.2,0.5c-0.5,0.1-0.8,0.5-0.8,1V58h-4v-2.5c0-0.3-0.1-0.5-0.3-0.7c-0.2-0.3-1.9-1-2.3-1c-0.3,0-0.5,0.1-0.7,0.3L39,55.8
			L36.2,53l1.7-1.7c0.2-0.2,0.3-0.4,0.3-0.7c0-0.2-0.1-0.4-0.2-0.6s-0.4-1-0.5-1.2c-0.1-0.5-0.5-0.8-1-0.8H34v-4h2.5
			c0.3,0,0.5-0.1,0.7-0.3c0.3-0.2,1-1.9,1-2.3c0-0.3-0.1-0.5-0.3-0.7L36.2,39l2.8-2.8l1.7,1.7c0.2,0.2,0.4,0.3,0.7,0.3
			c0.3,0,0.4-0.1,0.6-0.2s1-0.4,1.2-0.5c0.5-0.1,0.8-0.5,0.8-1V34h4v2.5c0,0.3,0.1,0.5,0.3,0.7c0.2,0.3,1.9,1,2.3,1
			c0.3,0,0.5-0.1,0.7-0.3l1.7-1.7l2.8,2.8l-1.7,1.7c-0.2,0.2-0.3,0.4-0.3,0.7c0,0.2,0.1,0.4,0.2,0.6s0.4,1,0.5,1.2
			c0.1,0.5,0.5,0.8,1,0.8H58V48z"/>
		<path fill="#5d0787" d="M46,42c-2.2,0-4,1.8-4,4s1.8,4,4,4s4-1.8,4-4S48.2,42,46,42z M46,48c-1.1,0-2-0.9-2-2s0.9-2,2-2s2,0.9,2,2S47.1,48,46,48z
			"/>
		<rect fill="#5d0787" x="23" y="17" width="14" height="2"/>
		<rect fill="#5d0787" x="26" y="21" width="8" height="2"/>
		<rect fill="#5d0787" x="28" y="54" width="2" height="2"/>
		<rect fill="#5d0787" x="24" y="54" width="2" height="2"/>
		<rect fill="#5d0787" x="20" y="54" width="2" height="2"/>
		<rect fill="#5d0787" x="16" y="54" width="2" height="2"/>
		<rect fill="#5d0787" x="20" y="50" width="10" height="2"/>
		<rect fill="#5d0787" x="28" y="46" width="2" height="2"/>
		<rect fill="#5d0787" x="24" y="46" width="2" height="2"/>
		<rect fill="#5d0787" x="20" y="46" width="2" height="2"/>
		<rect fill="#5d0787" x="16" y="46" width="2" height="2"/>
		<rect fill="#5d0787" x="12" y="46" width="2" height="2"/>
		<rect fill="#5d0787" x="8" y="46" width="2" height="2"/>
		<rect fill="#5d0787" x="12" y="42" width="18" height="2"/>
		<rect fill="#5d0787" x="28" y="38" width="2" height="2"/>
		<rect fill="#5d0787" x="24" y="38" width="2" height="2"/>
		<rect fill="#5d0787" x="20" y="38" width="2" height="2"/>
	</g>
</g>
<g>
</g>
<g>
</g>
<g>
</g>
<g>
</g>
<g>
</g>
<g>
</g>
<g>
</g>
<g>
</g>
<g>
</g>
<g>
</g>
<g>
</g>
<g>
</g>
<g>
</g>
<g>
</g>
<g>
</g>
</svg>
